<svg width="104" height="24" viewBox="0 0 104 24" fill="none" xmlns="http://www.w3.org/2000/svg">
<path d="M0 24V12C0 5.37357 5.37475 0 12.0025 0V12C12.0025 18.6264 6.62776 24 0 24Z" fill="#0072EC"/>
<path d="M23.9996 24V12C23.9996 5.37357 18.6249 0 11.9971 0V12C12.0018 18.6264 17.3719 24 23.9996 24Z" fill="#0F8FF9"/>
<path d="M47.9125 21H44.5525L43.4365 17.4H36.9325L35.8405 21H32.4805L37.7605 3.71997H42.6325L47.9125 21ZM40.1605 6.77997L37.8565 14.352H42.5005L40.1605 6.77997Z" fill="#2C3038"/>
<path d="M58.1753 3.71997H61.4633V21H58.5833V20.256C57.6153 20.992 56.4473 21.36 55.0793 21.36C53.9113 21.36 52.8713 21.064 51.9593 20.472C51.0553 19.872 50.3513 19.052 49.8473 18.012C49.3513 16.972 49.1033 15.808 49.1033 14.52C49.1033 13.208 49.3553 12.032 49.8593 10.992C50.3713 9.95197 51.0913 9.13997 52.0193 8.55597C52.9553 7.97197 54.0313 7.67997 55.2473 7.67997C56.3593 7.67997 57.3353 7.94397 58.1753 8.47197V3.71997ZM55.6073 18.456C57.5913 18.456 58.5833 17.144 58.5833 14.52C58.5833 13.288 58.3513 12.324 57.8873 11.628C57.4313 10.932 56.7113 10.584 55.7273 10.584C55.0233 10.584 54.4353 10.76 53.9633 11.112C53.4913 11.456 53.1393 11.924 52.9073 12.516C52.6753 13.108 52.5593 13.776 52.5593 14.52C52.5593 15.68 52.8153 16.628 53.3273 17.364C53.8393 18.092 54.5993 18.456 55.6073 18.456Z" fill="#2C3038"/>
<path d="M67.3793 15.432C67.4993 16.36 67.8153 17.072 68.3273 17.568C68.8473 18.064 69.5433 18.312 70.4153 18.312C71.0473 18.312 71.5913 18.172 72.0473 17.892C72.5113 17.612 72.8633 17.208 73.1033 16.68L76.3673 17.616C76.0473 18.392 75.5953 19.064 75.0113 19.632C74.4273 20.192 73.7553 20.62 72.9953 20.916C72.2353 21.212 71.4393 21.36 70.6073 21.36C69.2953 21.36 68.1273 21.076 67.1033 20.508C66.0873 19.94 65.2913 19.148 64.7153 18.132C64.1473 17.116 63.8633 15.968 63.8633 14.688C63.8633 13.296 64.1393 12.072 64.6913 11.016C65.2513 9.95197 66.0273 9.13197 67.0193 8.55597C68.0113 7.97197 69.1433 7.67997 70.4153 7.67997C71.6633 7.67997 72.7473 7.95597 73.6673 8.50797C74.5873 9.05997 75.2913 9.84397 75.7793 10.86C76.2753 11.876 76.5233 13.068 76.5233 14.436C76.5233 14.652 76.5073 14.984 76.4753 15.432H67.3793ZM70.5593 10.512C68.8393 10.512 67.8073 11.344 67.4633 13.008H73.1753C73.0633 12.136 72.7953 11.504 72.3713 11.112C71.9553 10.712 71.3513 10.512 70.5593 10.512Z" fill="#2C3038"/>
<path d="M84.0088 21.36C82.3768 21.36 81.0568 20.992 80.0488 20.256C79.0488 19.52 78.4408 18.472 78.2248 17.112L81.5608 16.608C81.6968 17.224 81.9968 17.704 82.4608 18.048C82.9328 18.384 83.5288 18.552 84.2488 18.552C84.8328 18.552 85.2848 18.44 85.6048 18.216C85.9328 17.984 86.0968 17.664 86.0968 17.256C86.0968 16.984 86.0288 16.776 85.8928 16.632C85.7648 16.48 85.4928 16.332 85.0768 16.188C84.6688 16.044 83.9688 15.84 82.9768 15.576C81.9048 15.304 81.0568 15 80.4328 14.664C79.8088 14.328 79.3568 13.928 79.0768 13.464C78.7968 13 78.6568 12.432 78.6568 11.76C78.6568 10.936 78.8688 10.216 79.2928 9.59997C79.7168 8.98397 80.3168 8.51197 81.0928 8.18397C81.8688 7.84797 82.7768 7.67997 83.8168 7.67997C84.8248 7.67997 85.7208 7.83597 86.5048 8.14797C87.2968 8.45997 87.9328 8.90797 88.4128 9.49197C88.9008 10.068 89.2008 10.744 89.3128 11.52L85.9768 12.12C85.9208 11.64 85.7128 11.26 85.3528 10.98C84.9928 10.7 84.5048 10.536 83.8888 10.488L83.6368 10.476C83.1088 10.476 82.6848 10.576 82.3648 10.776C82.0528 10.976 81.8968 11.248 81.8968 11.592C81.8968 11.824 81.9768 12.016 82.1368 12.168C82.2968 12.312 82.6088 12.464 83.0728 12.624C83.5368 12.776 84.2968 12.984 85.3528 13.248C86.3448 13.504 87.1368 13.804 87.7288 14.148C88.3208 14.484 88.7528 14.888 89.0248 15.36C89.2968 15.832 89.4328 16.408 89.4328 17.088C89.4328 17.968 89.2168 18.732 88.7848 19.38C88.3528 20.02 87.7288 20.512 86.9128 20.856C86.0968 21.192 85.1288 21.36 84.0088 21.36Z" fill="#2C3038"/>
<path d="M103.794 21H100.314L96.1618 15.444L94.9018 16.74V21H91.8058L91.8298 3.71997H94.9018V12.72L99.5938 8.03997H103.398L98.1418 13.428L103.794 21Z" fill="#2C3038"/>
</svg>
